<svg xmlns="http://www.w3.org/2000/svg" xmlns:xlink="http://www.w3.org/1999/xlink" xmlns:lucid="lucid" width="1147" height="621"><g transform="translate(-84 -12)" lucid:page-tab-id="0_0"><path d="M0 0h1870.87v1322.84H0z" fill="#ececec"/><path d="M201.33 161.33a6 6 0 0 1 6-6h338.83a6 6 0 0 1 6 6v310a6 6 0 0 1-6 6H207.33a6 6 0 0 1-6-6z" stroke="#5f787b" stroke-width="2" fill="#f2f3f5"/><path d="M202.33 218.93H553M327.75 218.93v256.73" stroke="#5f787b" stroke-width="2" stroke-linecap="round" fill="none"/><path d="M256.75 163.93a6 6 0 0 1 6-6h228a6 6 0 0 1 6 6v48a6 6 0 0 1-6 6h-228a6 6 0 0 1-6-6z" stroke="#000" stroke-opacity="0" stroke-width="2" fill="#fff" fill-opacity="0"/><use xlink:href="#a" transform="matrix(1,0,0,1,261.74826388888897,162.92833333333328) translate(40.32118055555554 35.833333333333336)"/><path d="M217 237a6 6 0 0 1 6-6h301a6 6 0 0 1 6 6v35a6 6 0 0 1-6 6H223a6 6 0 0 1-6-6z" stroke="#000" stroke-opacity="0" stroke-width="2" fill="#fff" fill-opacity="0"/><use xlink:href="#b" transform="matrix(1,0,0,1,222.00000000000006,236) translate(0 26.348958333333332)"/><use xlink:href="#c" transform="matrix(1,0,0,1,222.00000000000006,236) translate(121.35308159722221 26.348958333333332)"/><path d="M217 284a6 6 0 0 1 6-6h301a6 6 0 0 1 6 6v35a6 6 0 0 1-6 6H223a6 6 0 0 1-6-6z" stroke="#000" stroke-opacity="0" stroke-width="2" fill="#fff" fill-opacity="0"/><use xlink:href="#d" transform="matrix(1,0,0,1,222.00000000000006,283) translate(0 26.348958333333332)"/><use xlink:href="#e" transform="matrix(1,0,0,1,222.00000000000006,283) translate(121.35308159722221 26.348958333333332)"/><path d="M217 331a6 6 0 0 1 6-6h301a6 6 0 0 1 6 6v35a6 6 0 0 1-6 6H223a6 6 0 0 1-6-6z" stroke="#000" stroke-opacity="0" stroke-width="2" fill="#fff" fill-opacity="0"/><use xlink:href="#d" transform="matrix(1,0,0,1,222.00000000000006,330) translate(0 26.348958333333332)"/><use xlink:href="#f" transform="matrix(1,0,0,1,222.00000000000006,330) translate(121.35308159722221 26.348958333333332)"/><path d="M217 378a6 6 0 0 1 6-6h301a6 6 0 0 1 6 6v35a6 6 0 0 1-6 6H223a6 6 0 0 1-6-6z" stroke="#000" stroke-opacity="0" stroke-width="2" fill="#fff" fill-opacity="0"/><use xlink:href="#d" transform="matrix(1,0,0,1,222.00000000000006,377) translate(0 26.348958333333332)"/><use xlink:href="#g" transform="matrix(1,0,0,1,222.00000000000006,377) translate(121.35308159722221 26.348958333333332)"/><path d="M217 425a6 6 0 0 1 6-6h301a6 6 0 0 1 6 6v35a6 6 0 0 1-6 6H223a6 6 0 0 1-6-6z" stroke="#000" stroke-opacity="0" stroke-width="2" fill="#fff" fill-opacity="0"/><use xlink:href="#d" transform="matrix(1,0,0,1,222.00000000000006,424) translate(0 26.348958333333332)"/><use xlink:href="#h" transform="matrix(1,0,0,1,222.00000000000006,424) translate(121.35308159722221 26.348958333333332)"/><path d="M748.1 114a6 6 0 0 1 6-6h338.83a6 6 0 0 1 6 6v404.67a6 6 0 0 1-6 6H754.1a6 6 0 0 1-6-6z" stroke="#5f787b" stroke-width="2" fill="#f2f3f5"/><path d="M749.1 171.6h350.67M874.5 171.6v352.07" stroke="#5f787b" stroke-width="2" stroke-linecap="round" fill="none"/><path d="M803.5 116.6a6 6 0 0 1 6-6h228.02a6 6 0 0 1 6 6v48a6 6 0 0 1-6 6h-228a6 6 0 0 1-6-6z" stroke="#000" stroke-opacity="0" stroke-width="2" fill="#fff" fill-opacity="0"/><use xlink:href="#i" transform="matrix(1,0,0,1,808.5147181994747,115.59499999999997) translate(18.984375 35.833333333333336)"/><use xlink:href="#j" transform="matrix(1,0,0,1,808.5147181994747,115.59499999999997) translate(125.66840277777779 35.833333333333336)"/><path d="M763.77 189.67a6 6 0 0 1 6-6h301a6 6 0 0 1 6 6v35a6 6 0 0 1-6 6h-301a6 6 0 0 1-6-6z" stroke="#000" stroke-opacity="0" stroke-width="2" fill="#fff" fill-opacity="0"/><use xlink:href="#b" transform="matrix(1,0,0,1,768.7664543105858,188.66666666666669) translate(0 26.348958333333332)"/><use xlink:href="#c" transform="matrix(1,0,0,1,768.7664543105858,188.66666666666669) translate(121.35308159722221 26.348958333333332)"/><path d="M763.77 236.67a6 6 0 0 1 6-6h301a6 6 0 0 1 6 6v35a6 6 0 0 1-6 6h-301a6 6 0 0 1-6-6z" stroke="#000" stroke-opacity="0" stroke-width="2" fill="#fff" fill-opacity="0"/><use xlink:href="#d" transform="matrix(1,0,0,1,768.7664543105858,235.66666666666669) translate(0 26.348958333333332)"/><use xlink:href="#k" transform="matrix(1,0,0,1,768.7664543105858,235.66666666666669) translate(121.35308159722221 26.348958333333332)"/><path d="M763.77 271.7a6 6 0 0 1 6-6h315a6 6 0 0 1 6 6v58.92a6 6 0 0 1-6 6h-315a6 6 0 0 1-6-6z" stroke="#000" stroke-opacity="0" stroke-width="2" fill="#fff" fill-opacity="0"/><use xlink:href="#d" transform="matrix(1,0,0,1,768.7664543105858,270.71202256944446) translate(0 39.28645833333333)"/><use xlink:href="#l" transform="matrix(1,0,0,1,768.7664543105858,270.71202256944446) translate(121.35308159722221 39.28645833333333)"/><path d="M763.77 330.67a6 6 0 0 1 6-6h301a6 6 0 0 1 6 6v35a6 6 0 0 1-6 6h-301a6 6 0 0 1-6-6z" stroke="#000" stroke-opacity="0" stroke-width="2" fill="#fff" fill-opacity="0"/><use xlink:href="#d" transform="matrix(1,0,0,1,768.7664543105858,329.66666666666663) translate(0 26.348958333333332)"/><use xlink:href="#m" transform="matrix(1,0,0,1,768.7664543105858,329.66666666666663) translate(121.35308159722221 26.348958333333332)"/><path d="M573.16 316.33H727.1" stroke="#979ea8" stroke-width="4" fill="none"/><path d="M573.16 326.33v-20M553.16 316.33h20M727.1 306.33v20M747.1 316.33h-20" stroke="#979ea8" stroke-width="4" fill="#fff"/><path d="M763.77 465.66a6 6 0 0 1 6-6h301a6 6 0 0 1 6 6v35a6 6 0 0 1-6 6h-301a6 6 0 0 1-6-6z" stroke="#000" stroke-opacity="0" stroke-width="2" fill="#fff" fill-opacity="0"/><g><use xlink:href="#n" transform="matrix(1,0,0,1,768.7664543105858,464.661) translate(0 26.348958333333332)"/><use xlink:href="#o" transform="matrix(1,0,0,1,768.7664543105858,464.661) translate(121.35308159722221 26.348958333333332)"/></g><path d="M763.77 377.67a6 6 0 0 1 6-6h301a6 6 0 0 1 6 6v35a6 6 0 0 1-6 6h-301a6 6 0 0 1-6-6z" stroke="#000" stroke-opacity="0" stroke-width="2" fill="#fff" fill-opacity="0"/><g><use xlink:href="#d" transform="matrix(1,0,0,1,768.7664543105858,376.6666666666667) translate(0 26.348958333333332)"/><use xlink:href="#h" transform="matrix(1,0,0,1,768.7664543105858,376.6666666666667) translate(121.35308159722221 26.348958333333332)"/></g><path d="M763.77 418.66a6 6 0 0 1 6-6h301a6 6 0 0 1 6 6v35a6 6 0 0 1-6 6h-301a6 6 0 0 1-6-6z" stroke="#000" stroke-opacity="0" stroke-width="2" fill="#fff" fill-opacity="0"/><g><use xlink:href="#d" transform="matrix(1,0,0,1,768.7664543105858,417.661) translate(0 26.348958333333332)"/><use xlink:href="#p" transform="matrix(1,0,0,1,768.7664543105858,417.661) translate(121.35308159722221 26.348958333333332)"/></g><defs><path fill="#3a414a" d="M604-135c236 0 291-142 291-376v-838h190v859c5 340-142 510-480 510-326 0-463-164-463-492v-877h191v851c-3 222 46 363 271 363" id="q"/><path fill="#3a414a" d="M873-819c-18-114-119-146-250-146-163 0-245 50-245 151 0 151 170 148 294 185 182 54 388 94 388 320 0 240-189 325-439 329-245 4-410-69-454-268l159-31c24 133 136 168 295 165 144-2 270-31 270-171 0-164-195-160-331-202-167-52-350-87-350-299 0-218 173-315 413-313 220 2 373 77 412 260" id="r"/><path fill="#3a414a" d="M528 20c-247 0-343-132-343-381v-721h180v686c-4 177 45 284 224 277 194-8 279-136 279-336v-627h181c3 360-6 732 6 1082H885c-4-54-7-126-8-185h-3C809-64 714 20 528 20" id="s"/><path fill="#3a414a" d="M1000-272c3 95 12 159 101 161 21 0 41-3 59-7V-6c-44 10-86 16-139 16-141 2-191-84-197-217h-6C748-76 648 20 446 20c-207 0-318-120-318-322 0-266 194-348 454-354l236-4c12-191-40-305-222-305-140 0-220 47-232 172l-188-17c33-204 181-292 423-292 255 0 401 118 401 364v466zm-683-27c0 109 63 184 175 182 166-3 259-96 306-217 24-65 20-120 20-200-232 7-501-28-501 235zm162-902v-20l227-239h197v29l-300 230H479" id="t"/><path fill="#3a414a" d="M839-1102c70 0 148 7 206 17v167c-112-18-268-36-363 15-129 69-208 203-208 395V0H294c-10-367 32-789-52-1082h171c21 75 41 161 48 250h5c67-152 152-270 373-270" id="u"/><path fill="#3a414a" d="M745-142h380V0H143v-142h422v-798H246v-142h499v940zM545-1292v-192h200v192H545" id="v"/><path fill="#3a414a" d="M615-1102c343 0 484 203 482 560-1 347-147 562-488 562-336 0-475-219-479-562-4-349 156-560 485-560zm-8 989c240 0 301-180 301-429 0-245-55-427-290-427-236 0-299 181-299 427 0 243 61 429 288 429" id="w"/><g id="a"><use transform="matrix(0.017361111111111112,0,0,0.017361111111111112,0,0)" xlink:href="#q"/><use transform="matrix(0.017361111111111112,0,0,0.017361111111111112,21.336805555555557,0)" xlink:href="#r"/><use transform="matrix(0.017361111111111112,0,0,0.017361111111111112,42.673611111111114,0)" xlink:href="#s"/><use transform="matrix(0.017361111111111112,0,0,0.017361111111111112,64.01041666666667,0)" xlink:href="#t"/><use transform="matrix(0.017361111111111112,0,0,0.017361111111111112,85.34722222222223,0)" xlink:href="#u"/><use transform="matrix(0.017361111111111112,0,0,0.017361111111111112,106.68402777777779,0)" xlink:href="#v"/><use transform="matrix(0.017361111111111112,0,0,0.017361111111111112,128.02083333333334,0)" xlink:href="#w"/></g><path fill="#3a414a" d="M622-1349c296 4 497 117 497 404 0 282-193 424-485 431H353V0H162v-1349h460zm-15 684c195-3 320-88 320-277 0-184-129-255-328-254H353v531h254" id="x"/><path fill="#3a414a" d="M1003 0L516-638 353-469V0H162v-1349h191v673l572-673h225L646-777 1227 0h-224" id="y"/><g id="b"><use transform="matrix(0.014105902777777778,0,0,0.014105902777777778,0,0)" xlink:href="#x"/><use transform="matrix(0.014105902777777778,0,0,0.014105902777777778,17.33615451388889,0)" xlink:href="#y"/></g><path fill="#3a414a" d="M202-1349h823v156H709v1037h316V0H202v-156h316v-1037H202v-156" id="z"/><path fill="#3a414a" d="M473-1349c438-1 655 221 652 661C1122-268 945-8 532 0H162v-1349h311zm42 1193c308-4 416-205 418-532 2-330-131-509-459-505H353v1037h162" id="A"/><g id="c"><use transform="matrix(0.014105902777777778,0,0,0.014105902777777778,0,0)" xlink:href="#z"/><use transform="matrix(0.014105902777777778,0,0,0.014105902777777778,17.33615451388889,0)" xlink:href="#A"/></g><path fill="#3a414a" d="M650-1214c-281 0-336 244-336 533 0 295 60 546 347 546 188 0 263-142 322-282l159 65C1058-155 935 20 659 20c-401 0-546-295-546-701 0-407 135-689 536-689 264 0 391 146 466 335l-168 65c-47-129-127-244-297-244" id="B"/><path fill="#3a414a" d="M648-963c-190 6-283 138-283 336V0H185v-1484h181c-2 197 6 404-9 587h3c62-120 159-205 339-205 242 0 351 135 350 381V0H868v-695c1-168-57-273-220-268" id="C"/><path fill="#3a414a" d="M1000-272c3 95 12 159 101 161 21 0 41-3 59-7V-6c-44 10-86 16-139 16-141 2-191-84-197-217h-6C748-76 648 20 446 20c-207 0-318-120-318-322 0-266 194-348 454-354l236-4c12-191-40-305-222-305-140 0-220 47-232 172l-188-17c33-204 181-292 423-292 255 0 401 118 401 364v466zm-683-27c0 109 63 184 175 182 166-3 259-96 306-217 24-65 20-120 20-200-232 7-501-28-501 235" id="D"/><path fill="#3a414a" d="M715 0H502L69-1082h202c94 253 197 500 285 758 19 57 36 126 52 183 96-335 234-626 350-941h201" id="E"/><path fill="#3a414a" d="M617-1102c355 0 481 238 477 599H322c5 222 84 388 301 388 144 0 244-59 284-166l158 45C1002-72 854 20 623 20c-342 0-490-220-490-568 0-346 151-554 484-554zm291 461c-18-192-90-328-289-328-194 0-287 128-295 328h584" id="F"/><g id="d"><use transform="matrix(0.014105902777777778,0,0,0.014105902777777778,0,0)" xlink:href="#B"/><use transform="matrix(0.014105902777777778,0,0,0.014105902777777778,17.33615451388889,0)" xlink:href="#C"/><use transform="matrix(0.014105902777777778,0,0,0.014105902777777778,34.67230902777778,0)" xlink:href="#D"/><use transform="matrix(0.014105902777777778,0,0,0.014105902777777778,52.00846354166667,0)" xlink:href="#E"/><use transform="matrix(0.014105902777777778,0,0,0.014105902777777778,69.34461805555556,0)" xlink:href="#F"/></g><path fill="#3a414a" d="M706-1102c241 0 344 136 343 381V0H868v-695c1-168-57-273-220-268-190 6-283 138-283 336V0H185c-3-360 6-732-6-1082h170c4 54 7 126 8 185h3c63-121 164-204 346-205" id="G"/><path fill="#3a414a" d="M904-1102c199 0 220 177 220 381V0H956v-686c-3-114 0-215-60-264-70-33-125-4-158 71-26 56-39 140-39 252V0H531v-686c-3-114-1-215-61-264-78-41-136 24-157 84-24 69-39 159-39 259V0H105c-3-360 6-732-6-1082h149c6 50 3 123 8 175 36-100 83-195 216-195 135 0 166 79 196 196 42-105 93-196 236-196" id="H"/><g id="e"><use transform="matrix(0.014105902777777778,0,0,0.014105902777777778,0,0)" xlink:href="#s"/><use transform="matrix(0.014105902777777778,0,0,0.014105902777777778,17.33615451388889,0)" xlink:href="#r"/><use transform="matrix(0.014105902777777778,0,0,0.014105902777777778,34.67230902777778,0)" xlink:href="#F"/><use transform="matrix(0.014105902777777778,0,0,0.014105902777777778,52.00846354166667,0)" xlink:href="#u"/><use transform="matrix(0.014105902777777778,0,0,0.014105902777777778,69.34461805555556,0)" xlink:href="#G"/><use transform="matrix(0.014105902777777778,0,0,0.014105902777777778,86.68077256944444,0)" xlink:href="#D"/><use transform="matrix(0.014105902777777778,0,0,0.014105902777777778,104.01692708333333,0)" xlink:href="#H"/><use transform="matrix(0.014105902777777778,0,0,0.014105902777777778,121.35308159722223,0)" xlink:href="#F"/></g><path fill="#3a414a" d="M698-1104c312 3 392 244 392 558 0 315-82 566-392 566-169 0-277-65-331-184h-5c8 188 2 394 4 589H185V-858c0-76-1-156-6-224h175c6 52 9 120 10 178h4c58-122 150-202 330-200zm-49 991c225 0 255-203 255-433 0-225-32-419-253-419-236 0-285 192-285 441 0 237 53 411 283 411" id="I"/><path fill="#3a414a" d="M1018 0H814c-67-224-138-444-200-673C552-442 476-224 407 0H204L21-1082h178c43 310 105 601 126 933 54-225 128-425 193-638h193c63 212 134 415 185 638 22-336 90-622 136-933h176" id="J"/><path fill="#3a414a" d="M865-914c-3-187-2-380-2-570h180v1261c0 76 1 155 6 223H877c-8-49-9-116-10-174h-5C801-44 708 26 530 26c-135 0-234-46-297-139s-95-232-95-419c0-377 131-566 392-566 176 0 271 63 335 184zm-286-51c-222 0-255 197-255 427 0 229 31 425 253 425 237 0 286-195 286-441 0-238-52-411-284-411" id="K"/><g id="f"><use transform="matrix(0.014105902777777778,0,0,0.014105902777777778,0,0)" xlink:href="#I"/><use transform="matrix(0.014105902777777778,0,0,0.014105902777777778,17.33615451388889,0)" xlink:href="#D"/><use transform="matrix(0.014105902777777778,0,0,0.014105902777777778,34.67230902777778,0)" xlink:href="#r"/><use transform="matrix(0.014105902777777778,0,0,0.014105902777777778,52.00846354166667,0)" xlink:href="#r"/><use transform="matrix(0.014105902777777778,0,0,0.014105902777777778,69.34461805555556,0)" xlink:href="#J"/><use transform="matrix(0.014105902777777778,0,0,0.014105902777777778,86.68077256944444,0)" xlink:href="#w"/><use transform="matrix(0.014105902777777778,0,0,0.014105902777777778,104.01692708333333,0)" xlink:href="#u"/><use transform="matrix(0.014105902777777778,0,0,0.014105902777777778,121.35308159722223,0)" xlink:href="#K"/></g><path fill="#3a414a" d="M736-142h380V0H134v-142h422v-1200H267v-142h469v1342" id="L"/><g id="g"><use transform="matrix(0.014105902777777778,0,0,0.014105902777777778,0,0)" xlink:href="#F"/><use transform="matrix(0.014105902777777778,0,0,0.014105902777777778,17.33615451388889,0)" xlink:href="#H"/><use transform="matrix(0.014105902777777778,0,0,0.014105902777777778,34.67230902777778,0)" xlink:href="#D"/><use transform="matrix(0.014105902777777778,0,0,0.014105902777777778,52.00846354166667,0)" xlink:href="#v"/><use transform="matrix(0.014105902777777778,0,0,0.014105902777777778,69.34461805555556,0)" xlink:href="#L"/></g><path fill="#3a414a" d="M631 20c-350 0-501-215-501-562 0-355 162-560 502-560 250 0 399 118 446 323l-192 14c-23-124-109-196-262-196-242 0-305 171-305 415 1 245 61 427 304 427 151 0 248-77 267-215l190 12C1039-107 883 20 631 20" id="M"/><path fill="#3a414a" d="M682 16c-209 0-323-80-324-285v-671H190v-142h170l58-282h120v282h432v142H538v652c2 114 60 155 182 155 106 0 209-16 297-34v137C921-4 806 16 682 16" id="N"/><path fill="#3a414a" d="M-5 220v-96h1238v96H-5" id="O"/><g id="h"><use transform="matrix(0.014105902777777778,0,0,0.014105902777777778,0,0)" xlink:href="#M"/><use transform="matrix(0.014105902777777778,0,0,0.014105902777777778,17.33615451388889,0)" xlink:href="#u"/><use transform="matrix(0.014105902777777778,0,0,0.014105902777777778,34.67230902777778,0)" xlink:href="#F"/><use transform="matrix(0.014105902777777778,0,0,0.014105902777777778,52.00846354166667,0)" xlink:href="#D"/><use transform="matrix(0.014105902777777778,0,0,0.014105902777777778,69.34461805555556,0)" xlink:href="#N"/><use transform="matrix(0.014105902777777778,0,0,0.014105902777777778,86.68077256944444,0)" xlink:href="#F"/><use transform="matrix(0.014105902777777778,0,0,0.014105902777777778,104.01692708333333,0)" xlink:href="#K"/><use transform="matrix(0.014105902777777778,0,0,0.014105902777777778,121.35308159722223,0)" xlink:href="#O"/><use transform="matrix(0.014105902777777778,0,0,0.014105902777777778,138.68923611111111,0)" xlink:href="#D"/><use transform="matrix(0.014105902777777778,0,0,0.014105902777777778,156.025390625,0)" xlink:href="#N"/></g><path fill="#3a414a" d="M709-1193V0H519v-1193H76v-156h1076v156H709" id="P"/><g id="i"><use transform="matrix(0.017361111111111112,0,0,0.017361111111111112,0,0)" xlink:href="#P"/><use transform="matrix(0.017361111111111112,0,0,0.017361111111111112,21.336805555555557,0)" xlink:href="#w"/><use transform="matrix(0.017361111111111112,0,0,0.017361111111111112,42.673611111111114,0)" xlink:href="#A"/><use transform="matrix(0.017361111111111112,0,0,0.017361111111111112,64.01041666666667,0)" xlink:href="#w"/></g><path fill="#3a414a" d="M237 0v-1349h191v1193h672V0H237" id="Q"/><g id="j"><use transform="matrix(0.017361111111111112,0,0,0.017361111111111112,0,0)" xlink:href="#Q"/><use transform="matrix(0.017361111111111112,0,0,0.017361111111111112,21.336805555555557,0)" xlink:href="#v"/><use transform="matrix(0.017361111111111112,0,0,0.017361111111111112,42.673611111111114,0)" xlink:href="#r"/><use transform="matrix(0.017361111111111112,0,0,0.017361111111111112,64.01041666666667,0)" xlink:href="#N"/></g><g id="k"><use transform="matrix(0.014105902777777778,0,0,0.014105902777777778,0,0)" xlink:href="#N"/><use transform="matrix(0.014105902777777778,0,0,0.014105902777777778,17.33615451388889,0)" xlink:href="#v"/><use transform="matrix(0.014105902777777778,0,0,0.014105902777777778,34.67230902777778,0)" xlink:href="#N"/><use transform="matrix(0.014105902777777778,0,0,0.014105902777777778,52.00846354166667,0)" xlink:href="#L"/><use transform="matrix(0.014105902777777778,0,0,0.014105902777777778,69.34461805555556,0)" xlink:href="#F"/></g><g id="l"><use transform="matrix(0.014105902777777778,0,0,0.014105902777777778,0,0)" xlink:href="#K"/><use transform="matrix(0.014105902777777778,0,0,0.014105902777777778,17.33615451388889,0)" xlink:href="#F"/><use transform="matrix(0.014105902777777778,0,0,0.014105902777777778,34.67230902777778,0)" xlink:href="#r"/><use transform="matrix(0.014105902777777778,0,0,0.014105902777777778,52.00846354166667,0)" xlink:href="#M"/><use transform="matrix(0.014105902777777778,0,0,0.014105902777777778,69.34461805555556,0)" xlink:href="#u"/><use transform="matrix(0.014105902777777778,0,0,0.014105902777777778,86.68077256944444,0)" xlink:href="#v"/><use transform="matrix(0.014105902777777778,0,0,0.014105902777777778,104.01692708333333,0)" xlink:href="#I"/><use transform="matrix(0.014105902777777778,0,0,0.014105902777777778,121.35308159722223,0)" xlink:href="#N"/><use transform="matrix(0.014105902777777778,0,0,0.014105902777777778,138.68923611111111,0)" xlink:href="#v"/><use transform="matrix(0.014105902777777778,0,0,0.014105902777777778,156.025390625,0)" xlink:href="#w"/><use transform="matrix(0.014105902777777778,0,0,0.014105902777777778,173.36154513888889,0)" xlink:href="#G"/></g><path fill="#3a414a" d="M1048-32c-2 300-135 456-433 456-222-1-358-88-400-267l184-25c22 99 100 157 222 156 184-2 248-125 248-315 0-64 3-133-2-194C807-100 706-13 524-12c-306 0-381-228-381-537 0-318 85-550 400-550 164 0 271 83 325 202h3c1-60 3-134 12-185h171c-13 339-4 702-6 1050zM585-145c210-8 284-178 284-406 0-192-52-331-177-392-33-16-69-22-104-22-223 2-259 184-259 414 0 229 31 415 256 406" id="R"/><g id="m"><use transform="matrix(0.014105902777777778,0,0,0.014105902777777778,0,0)" xlink:href="#r"/><use transform="matrix(0.014105902777777778,0,0,0.014105902777777778,17.33615451388889,0)" xlink:href="#N"/><use transform="matrix(0.014105902777777778,0,0,0.014105902777777778,34.67230902777778,0)" xlink:href="#D"/><use transform="matrix(0.014105902777777778,0,0,0.014105902777777778,52.00846354166667,0)" xlink:href="#R"/><use transform="matrix(0.014105902777777778,0,0,0.014105902777777778,69.34461805555556,0)" xlink:href="#F"/></g><path fill="#3a414a" d="M614-1226c-167 1-283 53-283 213 0 183 186 193 334 234 230 63 463 120 463 409 0 286-219 387-518 390C309 23 131-98 79-338l185-37c34 165 149 248 351 246 184-2 324-58 324-238 0-203-207-221-372-266-210-57-422-111-422-377 0-267 201-356 470-360 279-5 430 101 480 324l-188 33c-28-141-121-215-293-213" id="S"/><g id="n"><use transform="matrix(0.014105902777777778,0,0,0.014105902777777778,0,0)" xlink:href="#S"/><use transform="matrix(0.014105902777777778,0,0,0.014105902777777778,17.33615451388889,0)" xlink:href="#y"/></g><g id="o"><use transform="matrix(0.014105902777777778,0,0,0.014105902777777778,0,0)" xlink:href="#s"/><use transform="matrix(0.014105902777777778,0,0,0.014105902777777778,17.33615451388889,0)" xlink:href="#r"/><use transform="matrix(0.014105902777777778,0,0,0.014105902777777778,34.67230902777778,0)" xlink:href="#F"/><use transform="matrix(0.014105902777777778,0,0,0.014105902777777778,52.00846354166667,0)" xlink:href="#u"/><use transform="matrix(0.014105902777777778,0,0,0.014105902777777778,69.34461805555556,0)" xlink:href="#O"/><use transform="matrix(0.014105902777777778,0,0,0.014105902777777778,86.68077256944444,0)" xlink:href="#v"/><use transform="matrix(0.014105902777777778,0,0,0.014105902777777778,104.01692708333333,0)" xlink:href="#K"/></g><g id="p"><use transform="matrix(0.014105902777777778,0,0,0.014105902777777778,0,0)" xlink:href="#s"/><use transform="matrix(0.014105902777777778,0,0,0.014105902777777778,17.33615451388889,0)" xlink:href="#I"/><use transform="matrix(0.014105902777777778,0,0,0.014105902777777778,34.67230902777778,0)" xlink:href="#K"/><use transform="matrix(0.014105902777777778,0,0,0.014105902777777778,52.00846354166667,0)" xlink:href="#D"/><use transform="matrix(0.014105902777777778,0,0,0.014105902777777778,69.34461805555556,0)" xlink:href="#N"/><use transform="matrix(0.014105902777777778,0,0,0.014105902777777778,86.68077256944444,0)" xlink:href="#F"/><use transform="matrix(0.014105902777777778,0,0,0.014105902777777778,104.01692708333333,0)" xlink:href="#K"/><use transform="matrix(0.014105902777777778,0,0,0.014105902777777778,121.35308159722223,0)" xlink:href="#O"/><use transform="matrix(0.014105902777777778,0,0,0.014105902777777778,138.68923611111111,0)" xlink:href="#D"/><use transform="matrix(0.014105902777777778,0,0,0.014105902777777778,156.025390625,0)" xlink:href="#N"/></g></defs></g></svg>